<?xml version="1.0" encoding="UTF-8"?>
<svg xmlns="http://www.w3.org/2000/svg" viewBox="0 -30 480 470" width="480" height="470">
<defs></defs>
  <rect x="0" y="-30" width="480" height="470" fill="#E85A1E"></rect>
  <defs>
    <path id="arch" d="M 50 110 Q 240 -8 430 110"></path>
  </defs>
  <text class="wht-anton" font-size="76" letter-spacing="3" text-anchor="middle" fill="#0F0E0B">
    <textPath href="#arch" startOffset="50%">WORLDWIDE</textPath>
  </text>
  <g transform="translate(60 130) scale(1.5)">
    <path d="M 0 118 L 38 76 L 60 96 L 88 60 L 108 84 L 128 50 L 152 80 L 178 56 L 202 86 L 240 118 Z" fill="#0F0E0B" opacity="0.32"></path>
    <path d="M 12 122 L 50 86 L 70 108 L 102 64 L 122 92 L 140 70 L 158 96 L 180 78 L 210 110 L 232 122 Z" fill="#0F0E0B"></path>
    <circle cx="128" cy="50" r="6" fill="#F1ECDE"></circle>
    <rect x="0" y="126" width="92" height="3" fill="#0F0E0B"></rect>
    <rect x="148" y="126" width="92" height="3" fill="#0F0E0B"></rect>
  </g>
  <text class="wht-anton" x="240" y="378" font-size="52" letter-spacing="5" text-anchor="middle" fill="#0F0E0B">HUNTING TRIPS</text>
  <text class="wht-mono" x="240" y="412" font-size="10" letter-spacing="2" text-anchor="middle" fill="#0F0E0B" opacity="0.55">CONNECTING OUTFITTERS WITH HUNTERS · FREE</text>
</svg>