<?xml version="1.0" encoding="UTF-8"?>
<svg xmlns="http://www.w3.org/2000/svg" viewBox="0 0 420 420" width="420" height="420">
<defs></defs>
  <rect width="420" height="420" fill="#F1ECDE"></rect>
  <defs>
    <path id="seal-top" d="M 210 210 m -165 0 a 165 165 0 1 1 330 0"></path>
    <path id="seal-bot" d="M 210 210 m -165 0 a 165 165 0 1 0 330 0"></path>
  </defs>
  <circle cx="210" cy="210" r="198" fill="none" stroke="#0F0E0B" stroke-width="2"></circle>
  <circle cx="210" cy="210" r="184" fill="none" stroke="#0F0E0B" stroke-width="0.75"></circle>
  <text class="wht-anton" font-size="24" letter-spacing="6" text-anchor="middle" fill="#0F0E0B">
    <textPath href="#seal-top" startOffset="50%">WORLDWIDE · HUNTING · TRIPS</textPath>
  </text>
  <text class="wht-mono" font-size="11" letter-spacing="4" text-anchor="middle" fill="#0F0E0B">
    <textPath href="#seal-bot" startOffset="50%">EST 2025 · GLOBAL OUTFITTERS · FREE</textPath>
  </text>
  <circle cx="210" cy="32" r="3.5" fill="#E85A1E"></circle>
  <circle cx="210" cy="388" r="3.5" fill="#0F0E0B"></circle>
  <g transform="translate(90 195)">
    <path d="M 0 118 L 38 76 L 60 96 L 88 60 L 108 84 L 128 50 L 152 80 L 178 56 L 202 86 L 240 118 Z" fill="#0F0E0B" opacity="0.32"></path>
    <path d="M 12 122 L 50 86 L 70 108 L 102 64 L 122 92 L 140 70 L 158 96 L 180 78 L 210 110 L 232 122 Z" fill="#0F0E0B"></path>
    <circle cx="128" cy="50" r="5" fill="#E85A1E"></circle>
  </g>
  <line x1="120" y1="318" x2="300" y2="318" stroke="#0F0E0B" stroke-width="0.75"></line>
  <text class="wht-anton" x="210" y="342" font-size="18" letter-spacing="5" text-anchor="middle" fill="#0F0E0B">BOOK DIRECT</text>

</svg>